<svg id="Layer_1" data-name="Layer 1" xmlns="http://www.w3.org/2000/svg" viewBox="0 0 400 167"><defs><style>.cls-1{fill:#f50;}.cls-2{fill:#ffae00;}</style></defs><path class="cls-1" d="M303.05,48.58a59.16,59.16,0,0,0,0,118.32,58.45,58.45,0,0,0,32.06-9.54v9H362V107.74A59.14,59.14,0,0,0,303.05,48.58Zm0,91.32a32.16,32.16,0,1,1,32.06-32.16A32.15,32.15,0,0,1,303.05,139.9ZM400,52.21V166.32H373.08V52.21Z"/><path class="cls-2" d="M91,0V58.22A58.48,58.48,0,0,0,59,48.67a59.17,59.17,0,1,0,59,59.17V0ZM59,140A32.16,32.16,0,1,1,91,107.84,32.14,32.14,0,0,1,59,140Zm181.19-10.3A59.16,59.16,0,1,1,239,83.12L214.07,93.57a32.15,32.15,0,1,0,1.24,25.69Z"/></svg>