<svg id="Layer_1" data-name="Layer 1" xmlns="http://www.w3.org/2000/svg" viewBox="0 0 300 156"><defs><style>.cls-1{fill:#fff;}</style></defs><path class="cls-1" d="M143.81,53.47h8.91c8.08,0,13.35,5.69,13.35,13.11s-5.27,13.08-13.35,13.08h-8.91Zm8.91,23.28c6.32,0,10-4.55,10-10.17s-3.55-10.2-10-10.2h-5.67V76.75Z"/><path class="cls-1" d="M186.14,73.85h-13.2l-2.3,5.81h-3.59l10.46-26.19h4L192,79.66h-3.6Zm-12.26-2.91h11.28l-5.62-14.56Z"/><path class="cls-1" d="M198.91,56.38h-8.24V53.47h19.76v2.91h-8.28V79.66h-3.24Z"/><path class="cls-1" d="M228.74,73.85h-13.2l-2.3,5.81h-3.59l10.46-26.19h4l10.51,26.19H231Zm-12.26-2.91h11.28l-5.62-14.56Z"/><path class="cls-1" d="M234.91,65h9.37v2.6h-9.37Z"/><path class="cls-1" d="M142.76,104.76c0-8.05,5.9-13.55,13.27-13.55a11.7,11.7,0,0,1,10,5.18l-2.73,1.53a8.86,8.86,0,0,0-7.27-3.8c-5.58,0-9.91,4.39-9.91,10.64s4.33,10.63,9.91,10.63a8.75,8.75,0,0,0,7.27-3.8l2.77,1.53a11.84,11.84,0,0,1-10,5.18C148.66,118.3,142.76,112.8,142.76,104.76Z"/><path class="cls-1" d="M170.6,91.64h17.06v2.91H173.84V103h13.55v2.9H173.84v9h13.82v2.91H170.6Z"/><path class="cls-1" d="M196.84,96.71v21.12H193.6V91.64h3.32l15,20.69V91.64h3.24v26.19H212Z"/><path class="cls-1" d="M228.08,94.55h-8.24V91.64h19.75v2.91h-8.27v23.28h-3.24Z"/><path class="cls-1" d="M252.72,107.42h-5.2v10.41h-3.24V91.64h10.47c4.76,0,8.16,3.07,8.16,7.89a7.22,7.22,0,0,1-6.76,7.62l7,10.68h-3.83Zm1.63-12.87h-6.83v10h6.83a5,5,0,1,0,0-10Z"/><path class="cls-1" d="M268.61,91.64h3.24v26.19h-3.24Z"/><path class="cls-1" d="M276.69,104.76c0-8.05,5.9-13.55,13.28-13.55a11.7,11.7,0,0,1,10,5.18l-2.73,1.53a8.85,8.85,0,0,0-7.26-3.8c-5.59,0-9.92,4.39-9.92,10.64s4.33,10.63,9.92,10.63a8.75,8.75,0,0,0,7.26-3.8l2.77,1.53a11.83,11.83,0,0,1-10,5.18C282.59,118.3,276.69,112.8,276.69,104.76Z"/><path class="cls-1" d="M160.21,150.19H147L144.71,156h-3.59l10.46-26.18h4L166.11,156h-3.59ZM148,147.28h11.29l-5.63-14.56Z"/><path class="cls-1" d="M170.09,129.82h3.24V156h-3.24Z"/><path class="cls-1" d="M65.92,0V60.41A33,33,0,1,1,33,27.27a32.66,32.66,0,0,1,17.92,5.34V0Zm-15,60.41A17.92,17.92,0,1,0,33,78.42,18,18,0,0,0,50.88,60.41Z"/><path class="cls-1" d="M103.15,27.27a33.14,33.14,0,1,0,30.62,45.38l-13.89-5.84a18,18,0,1,1-.7-14.4l13.9-5.85a33,33,0,0,0-29.93-19.29"/><path class="cls-1" d="M124.31,93v63h-15V98.81A38.27,38.27,0,0,0,124.31,93Z"/><path class="cls-1" d="M101.56,122.6V156h-15V150.4a32.66,32.66,0,0,1-17.92,5.34,33.14,33.14,0,1,1,33-33.14Zm-15,0a17.92,17.92,0,1,0-17.92,18A18,18,0,0,0,86.51,122.6Z"/></svg>