<?xml version="1.0" standalone="no"?>
<!DOCTYPE svg PUBLIC "-//W3C//DTD SVG 20010904//EN"
 "http://www.w3.org/TR/2001/REC-SVG-20010904/DTD/svg10.dtd">
<svg version="1.0" xmlns="http://www.w3.org/2000/svg"
 width="668.000000pt" height="668.000000pt" viewBox="0 0 668.000000 668.000000"
 preserveAspectRatio="xMidYMid meet">
<metadata>
Created by potrace 1.14, written by Peter Selinger 2001-2017
</metadata>
<g transform="translate(0.000000,668.000000) scale(0.100000,-0.100000)"
fill="#000000" stroke="none">
<path d="M2547 6452 c-16 -3 -17 -52 -17 -653 l0 -649 -42 27 c-135 85 -360
160 -533 178 -62 6 -215 7 -273 1 -293 -30 -576 -163 -784 -369 -83 -82 -178
-197 -178 -215 0 -6 -4 -12 -9 -14 -5 -1 -31 -46 -59 -98 -131 -247 -179 -505
-147 -790 4 -36 8 -67 10 -70 2 -3 6 -25 10 -48 16 -108 108 -328 186 -443
151 -225 363 -404 586 -494 37 -15 77 -31 88 -35 114 -47 269 -69 455 -66 227
4 358 35 555 131 398 195 686 603 731 1035 4 41 8 636 8 1323 l1 1247 -75 1
c-41 0 -170 1 -286 2 -116 1 -218 1 -227 -1z m-569 -1718 c85 -19 194 -71 267
-126 66 -51 97 -83 150 -157 59 -81 92 -156 122 -276 3 -11 7 -65 9 -120 7
-199 -63 -379 -201 -519 -116 -117 -235 -180 -401 -212 -120 -23 -307 7 -429
68 -199 100 -349 305 -385 527 -11 68 -9 208 4 270 16 71 73 199 118 263 110
154 303 273 480 294 29 3 54 7 56 9 7 6 155 -8 210 -21z"/>
<path d="M4588 5365 c-2 -2 -37 -5 -78 -8 -66 -6 -99 -11 -200 -32 -62 -12
-193 -61 -275 -102 -314 -157 -565 -450 -669 -780 -14 -46 -28 -94 -30 -108
-3 -14 -10 -53 -17 -88 -14 -76 -19 -282 -9 -357 4 -30 11 -75 14 -100 4 -25
20 -89 37 -144 111 -362 377 -665 719 -820 128 -58 228 -86 405 -112 35 -5
223 -5 275 1 110 11 266 51 369 95 293 125 541 361 680 649 l41 84 -23 11
c-12 6 -69 31 -127 55 -58 24 -123 51 -145 61 -58 26 -159 68 -216 90 l-50 20
-18 -43 c-75 -169 -234 -314 -417 -380 -248 -89 -531 -26 -728 161 -93 90
-177 241 -206 376 -16 72 -13 221 5 300 68 294 312 516 611 554 158 21 333
-20 469 -108 93 -61 199 -174 244 -262 8 -15 17 -25 21 -23 4 2 79 34 166 70
87 36 173 72 189 79 17 8 64 28 105 46 41 17 78 34 82 38 10 10 -43 111 -110
207 -56 80 -112 145 -187 215 -209 196 -486 321 -765 345 -115 10 -159 12
-162 10z"/>
<path d="M3167 2874 c-1 -1 -33 -4 -72 -8 -203 -19 -418 -100 -600 -225 -303
-208 -500 -523 -560 -895 -13 -76 -14 -342 -2 -391 2 -11 8 -40 12 -65 22
-136 100 -327 189 -465 157 -240 381 -422 642 -520 86 -32 154 -50 274 -72 63
-11 302 -10 380 2 90 13 215 46 278 72 78 32 161 72 201 97 22 15 42 23 42 19
1 -5 3 -48 4 -98 1 -49 3 -95 4 -102 1 -8 80 -11 301 -11 l300 0 -1 722 c0
402 -5 752 -11 791 -68 493 -405 909 -870 1073 -85 31 -188 55 -281 67 -45 6
-225 13 -230 9z m269 -637 c310 -90 522 -379 517 -702 -8 -478 -478 -818 -926
-671 -125 42 -196 86 -292 181 -136 136 -206 304 -207 495 0 97 1 108 23 195
63 254 286 463 553 519 90 19 235 12 332 -17z"/>
<path d="M5385 2686 c-125 -75 -309 -145 -465 -176 l-55 -10 1 -1138 c1 -625
2 -1140 3 -1143 0 -4 136 -7 301 -7 l300 0 0 1259 c0 692 -3 1259 -7 1258 -5
0 -39 -20 -78 -43z"/>
</g>
</svg>
